<?xml version="1.0" encoding="UTF-8"?>
<svg id="Layer_1" data-name="Layer 1" xmlns="http://www.w3.org/2000/svg" xmlns:xlink="http://www.w3.org/1999/xlink" viewBox="0 0 300 81.6">
  <defs>
    <style>
      .cls-1 {
        clip-path: url(#clippath);
      }

      .cls-2 {
        fill: none;
      }

      .cls-2, .cls-3, .cls-4 {
        stroke-width: 0px;
      }

      .cls-3 {
        fill: #ef4241;
      }

      .cls-4 {
        fill: #412645;
      }

      .cls-5 {
        isolation: isolate;
      }
    </style>
    <clipPath id="clippath">
      <rect class="cls-2" x="1" width="145.36" height="81.6"/>
    </clipPath>
  </defs>
  <g class="cls-5">
    <path class="cls-4" d="M167.42,28.62c-1.5,0-2.88-.26-4.14-.77s-2.35-1.23-3.28-2.15c-.92-.92-1.64-2.01-2.15-3.28-.51-1.26-.77-2.64-.77-4.14s.26-2.85.77-4.12c.51-1.26,1.23-2.36,2.15-3.29s2.01-1.65,3.28-2.17,2.64-.77,4.14-.77,2.85.26,4.1.77c1.25.51,2.34,1.23,3.26,2.17s1.64,2.03,2.15,3.29c.51,1.26.77,2.64.77,4.14s-.26,2.85-.77,4.1-1.23,2.35-2.15,3.28c-.92.93-2.01,1.65-3.26,2.16-1.25.51-2.62.77-4.1.77ZM167.42,24.04c.78,0,1.49-.14,2.14-.43.65-.28,1.21-.68,1.69-1.2.48-.51.86-1.12,1.12-1.82.27-.7.4-1.46.4-2.28s-.13-1.6-.4-2.31c-.27-.7-.64-1.31-1.12-1.84-.48-.52-1.05-.93-1.69-1.21-.65-.28-1.36-.43-2.14-.43s-1.5.14-2.15.43c-.66.28-1.23.69-1.71,1.21-.48.52-.86,1.13-1.12,1.84-.27.7-.4,1.47-.4,2.31,0,1.1.23,2.08.7,2.95s1.1,1.54,1.91,2.04c.81.49,1.73.74,2.78.74Z"/>
    <path class="cls-4" d="M189.83,28.51c-1.65,0-3.12-.34-4.4-1.01-1.28-.67-2.29-1.6-3.03-2.79-.74-1.19-1.11-2.53-1.11-4.03v-12.3h4.9v12.05c0,.72.16,1.37.48,1.94.32.57.76,1.02,1.32,1.35.56.33,1.17.5,1.84.5.7,0,1.34-.17,1.91-.5.57-.33,1.02-.78,1.35-1.35.33-.57.5-1.21.5-1.94v-12.05h4.73v12.3c0,1.5-.37,2.84-1.1,4.03s-1.73,2.12-3,2.79c-1.27.67-2.73,1.01-4.39,1.01Z"/>
    <path class="cls-4" d="M203.16,28.34V8.4h9.03c1.29,0,2.45.28,3.47.83,1.03.55,1.84,1.31,2.44,2.26.6.96.9,2.06.9,3.29s-.3,2.37-.9,3.36c-.6.99-1.41,1.77-2.44,2.35-1.02.58-2.18.87-3.47.87h-4.39v6.98h-4.64ZM207.8,17.57h3.96c.49,0,.93-.11,1.3-.33s.66-.52.85-.9c.2-.38.3-.82.3-1.31s-.12-.96-.36-1.34-.57-.68-1-.9c-.43-.22-.94-.33-1.52-.33h-3.53v5.1ZM214.24,28.34l-5.07-9.03,4.98-.71,5.64,9.77-5.55-.03Z"/>
  </g>
  <g class="cls-5">
    <path class="cls-4" d="M167.39,54.73c-1.5,0-2.88-.25-4.14-.75-1.26-.5-2.35-1.22-3.28-2.14-.92-.92-1.63-2.01-2.14-3.28-.5-1.26-.75-2.64-.75-4.14s.26-2.85.78-4.1c.52-1.25,1.26-2.34,2.21-3.28.95-.93,2.06-1.65,3.35-2.16s2.67-.77,4.17-.77c.95,0,1.88.12,2.79.37.91.25,1.76.61,2.55,1.1.79.48,1.47,1.07,2.04,1.75l-2.99,3.39c-.59-.65-1.25-1.15-1.98-1.51-.73-.36-1.54-.54-2.44-.54-.76,0-1.48.13-2.15.4-.67.27-1.26.66-1.75,1.17-.49.51-.88,1.12-1.17,1.82-.28.7-.43,1.5-.43,2.39s.14,1.67.41,2.38c.27.71.67,1.32,1.2,1.82.52.5,1.15.89,1.88,1.15.73.27,1.54.4,2.44.4.59,0,1.15-.08,1.69-.24.54-.16,1.05-.39,1.52-.7.47-.3.88-.65,1.22-1.03l2.36,3.76c-.46.51-1.08.98-1.87,1.4-.79.42-1.66.75-2.62.98s-1.93.36-2.92.36Z"/>
    <path class="cls-4" d="M178.07,54.45v-19.94h4.87v19.94h-4.87ZM180,46.7v-4.39h13.02v4.39h-13.02ZM190.46,54.45v-19.94h4.87v19.94h-4.87Z"/>
    <path class="cls-4" d="M209.37,54.73c-1.5,0-2.88-.26-4.14-.77s-2.35-1.23-3.28-2.15c-.92-.92-1.64-2.01-2.15-3.28-.51-1.26-.77-2.64-.77-4.14s.26-2.85.77-4.12c.51-1.26,1.23-2.36,2.15-3.29s2.01-1.65,3.28-2.17,2.64-.77,4.14-.77,2.85.26,4.1.77c1.25.51,2.34,1.23,3.26,2.17s1.64,2.03,2.15,3.29c.51,1.26.77,2.64.77,4.14s-.26,2.85-.77,4.1-1.23,2.35-2.15,3.28c-.92.93-2.01,1.65-3.26,2.16-1.25.51-2.62.77-4.1.77ZM209.37,50.15c.78,0,1.49-.14,2.14-.43.65-.28,1.21-.68,1.69-1.2.48-.51.86-1.12,1.12-1.82.27-.7.4-1.46.4-2.28s-.13-1.6-.4-2.31c-.27-.7-.64-1.31-1.12-1.84-.48-.52-1.05-.93-1.69-1.21-.65-.28-1.36-.43-2.14-.43s-1.5.14-2.15.43c-.66.28-1.23.69-1.71,1.21-.48.52-.86,1.13-1.12,1.84-.27.7-.4,1.47-.4,2.31,0,1.1.23,2.08.7,2.95s1.1,1.54,1.91,2.04c.81.49,1.73.74,2.78.74Z"/>
    <path class="cls-4" d="M222.56,54.45v-4.1h3.36v-11.73h-3.36v-4.1h11.59v4.1h-3.36v11.73h3.36v4.1h-11.59Z"/>
    <path class="cls-4" d="M247.36,54.73c-1.5,0-2.88-.25-4.14-.75-1.26-.5-2.35-1.22-3.28-2.14-.92-.92-1.63-2.01-2.14-3.28-.5-1.26-.75-2.64-.75-4.14s.26-2.85.78-4.1c.52-1.25,1.26-2.34,2.21-3.28.95-.93,2.06-1.65,3.35-2.16s2.67-.77,4.17-.77c.95,0,1.88.12,2.79.37.91.25,1.76.61,2.55,1.1.79.48,1.47,1.07,2.04,1.75l-2.99,3.39c-.59-.65-1.25-1.15-1.98-1.51-.73-.36-1.54-.54-2.44-.54-.76,0-1.48.13-2.15.4-.67.27-1.26.66-1.75,1.17-.49.51-.88,1.12-1.17,1.82-.28.7-.43,1.5-.43,2.39s.14,1.67.41,2.38c.27.71.67,1.32,1.2,1.82.52.5,1.15.89,1.88,1.15.73.27,1.54.4,2.44.4.59,0,1.15-.08,1.69-.24.54-.16,1.05-.39,1.52-.7.47-.3.88-.65,1.22-1.03l2.36,3.76c-.46.51-1.08.98-1.87,1.4-.79.42-1.66.75-2.62.98s-1.93.36-2.92.36Z"/>
    <path class="cls-4" d="M258.05,54.45v-19.94h13.9v4.16h-9.14v11.62h9.46v4.16h-14.21ZM260.35,46.3v-3.99h10.34v3.99h-10.34Z"/>
  </g>
  <g class="cls-5">
    <path class="cls-4" d="M158.33,80.56v-19.94h4.87v19.94h-4.87ZM160.61,64.92v-4.3h11.51v4.3h-11.51ZM160.61,72.92v-4.07h10.37v4.07h-10.37Z"/>
    <path class="cls-4" d="M175.93,80.56v-19.94h13.9v4.16h-9.14v11.62h9.46v4.16h-14.21ZM178.24,72.41v-3.99h10.34v3.99h-10.34Z"/>
    <path class="cls-4" d="M200.94,80.84c-1.98,0-3.64-.35-5-1.04-1.36-.69-2.52-1.68-3.49-2.95l2.96-3.33c.93,1.27,1.87,2.13,2.82,2.56.95.44,1.93.66,2.93.66.51,0,.97-.07,1.38-.2.41-.13.73-.33.97-.58.24-.26.36-.56.36-.93,0-.29-.07-.54-.21-.77-.14-.23-.34-.43-.58-.6-.25-.17-.53-.33-.85-.47-.32-.14-.68-.26-1.07-.36-.39-.09-.78-.18-1.18-.26-1.1-.23-2.06-.53-2.86-.9-.81-.37-1.48-.82-2.02-1.34-.54-.52-.94-1.12-1.21-1.79-.27-.67-.4-1.44-.4-2.29,0-1.21.35-2.28,1.04-3.19.69-.91,1.61-1.62,2.75-2.14,1.14-.51,2.37-.77,3.7-.77,1.94,0,3.5.31,4.69.93,1.19.62,2.13,1.47,2.83,2.55l-3.02,2.93c-.59-.76-1.26-1.33-2.01-1.71-.75-.38-1.53-.57-2.35-.57-.55,0-1.04.07-1.45.2-.42.13-.74.33-.95.58s-.33.56-.33.93c0,.3.09.57.27.81.18.24.43.44.75.61s.69.32,1.11.44c.42.12.85.22,1.31.3,1.04.21,1.99.48,2.83.83s1.57.76,2.18,1.27c.61.5,1.08,1.09,1.41,1.77.33.67.5,1.45.5,2.32,0,1.37-.33,2.53-1,3.5-.66.97-1.59,1.71-2.76,2.22s-2.53.77-4.04.77Z"/>
    <path class="cls-4" d="M216.72,80.56v-15.64h-5.87v-4.3h16.8v4.3h-6.07v15.64h-4.87Z"/>
    <path class="cls-4" d="M230.67,80.56v-4.1h3.36v-11.73h-3.36v-4.1h11.59v4.1h-3.36v11.73h3.36v4.1h-11.59Z"/>
    <path class="cls-4" d="M252.49,80.56l-7.98-19.94h5.07l3.82,10.05c.23.59.42,1.11.58,1.57.16.46.3.88.43,1.27.12.39.24.78.36,1.17s.24.83.37,1.32h-.88c.17-.66.33-1.25.48-1.77.15-.51.32-1.04.51-1.59.19-.55.43-1.21.71-1.97l3.67-10.05h4.96l-8,19.94h-4.1Z"/>
    <path class="cls-4" d="M262.63,80.56l7.89-19.94h4.13l7.83,19.94h-4.9l-3.79-10.11c-.13-.4-.28-.83-.44-1.28-.16-.46-.32-.93-.47-1.42s-.29-.97-.43-1.42-.25-.88-.34-1.28l.83-.03c-.11.47-.24.94-.37,1.4-.13.46-.28.91-.43,1.37-.15.46-.31.91-.47,1.35-.16.45-.33.91-.5,1.38l-3.76,10.05h-4.79ZM266.39,76.74l1.54-3.7h9.11l1.54,3.7h-12.19Z"/>
    <path class="cls-4" d="M284.96,80.56v-19.94h4.87v15.64h8.89v4.3h-13.76Z"/>
  </g>
  <g id="Group_3" data-name="Group 3">
    <g class="cls-1">
      <g id="Group_2" data-name="Group 2">
        <g id="Group_1" data-name="Group 1">
          <path id="Path_1" data-name="Path 1" class="cls-3" d="M146.29,11.81c-.02-1.32-.04-2.6-.05-3.79l-.02-3-2.94-.6c-14.57-2.99-31.3-1.49-45.84.15l-3.29.37v3.32c0,1.53,0,3.03,0,4.55-.96-1.36-2.03-2.62-3.22-3.78C82.6.87,69.56-2.22,59.92,1.68c-5.66,2.29-9.59,6.66-11.51,12.62-2.11-4.41-5.78-7.78-10.75-9.77-9-3.6-19.87-1.96-26.65,1.27l-.38.21C2.97,10.82,1.62,20.23,1.3,27.88v.15s0,.15,0,.15c.15,3.82.03,7.99-.11,12.42-.44,14.49-.9,29.47,8.29,36.88,3.41,2.75,7.73,4.12,13.08,4.12,3.6-.06,7.18-.54,10.66-1.45,7.16-1.14,12.34-5.78,15.09-13.17,1.59,5.52,4.47,9.85,9.54,11.8,3.93,1.76,8.2,2.67,12.51,2.65,5.26.02,10.43-1.32,15.02-3.89,3.43-1.9,6.37-4.59,8.58-7.83,0,2.09,0,4.19,0,6.3v3s2.94.62,2.94.62c2.55.47,5.15.69,7.74.64,2.98,0,6.04-.19,8.76-.35.68-.04,1.34-.08,1.96-.12l3.42-.19.07-3.43c.04-1.88.07-3.86.09-5.89.07-5.48.15-11.11.47-16.31,1.3-.13,2.72-.24,4.11-.34,2.74-.21,5.57-.42,7.79-.8l2.91-.5.16-2.95c.06-1.13.16-1.95.25-2.74.3-2.54.45-4.38-.28-9.91l-.45-3.38-3.41.17c-.88.04-1.7.09-2.47.13-3.35.18-6.81.36-7.71-.03-.45-.78-.61-3.61-.71-6.79,2.71-.25,7.68-.19,11.24-.15,4.3.05,8.75.1,11.99-.16l3.22-.26.18-3.23c.19-3.43.12-7.58.06-11.23M82.63,43.86c-.9.02-1.83.05-2.79.06l-2.85.03-.7,2.76c-.37,1.67-.52,3.38-.46,5.08,0,1.61,0,3-.52,3.99l-.08.16c-.53.92-1.53,1.45-2.59,1.37-.8.04-1.54-.42-1.85-1.16l-.05-.13c-1.84-4.35-1.68-9.94-1.53-15.34.06-2.02.12-4.11.07-6.14.12-1.52.12-3.03.12-4.49-.08-1.8.04-3.6.34-5.38,1.65-.77,2.69-.81,3.14-.55.84.49,2.25,3.07,2.2,9.58l-.03,3.14,3.1.53c5.44.94,10.39,1.61,15.95.38-.01,1.94-.02,3.87-.03,5.79,0,.63,0,1.27,0,1.9-3.04-1.81-7.14-1.7-11.43-1.58M29.34,41.48c.09,8.68-2.49,16.96-4.29,18.06-.69-.37-1.29-.88-1.76-1.51-1.25-1.44-2.9-8.7-1.18-26.84.93-3.7,3.14-5.5,4.4-5.41.97.09,2.05,1.9,2.23,5.2v.11c.35,4.07.54,7.37.6,10.38"/>
        </g>
      </g>
    </g>
  </g>
</svg>