<?xml version="1.0" encoding="UTF-8"?>
<svg id="Layer_3" data-name="Layer 3" xmlns="http://www.w3.org/2000/svg" xmlns:xlink="http://www.w3.org/1999/xlink" viewBox="0 0 145.5 81.6">
  <defs>
    <style>
      .cls-1 {
        clip-path: url(#clippath);
      }

      .cls-2 {
        fill: none;
      }

      .cls-2, .cls-3 {
        stroke-width: 0px;
      }

      .cls-3 {
        fill: #ef4241;
      }
    </style>
    <clipPath id="clippath">
      <rect class="cls-2" y=".08" width="145.07" height="81.44"/>
    </clipPath>
  </defs>
  <g id="Group_3" data-name="Group 3">
    <g class="cls-1">
      <g id="Group_2" data-name="Group 2">
        <g id="Group_1" data-name="Group 1">
          <path id="Path_1" data-name="Path 1" class="cls-3" d="M145.01,11.86c-.02-1.32-.04-2.6-.05-3.78l-.02-2.99-2.93-.6c-14.54-2.98-31.24-1.49-45.75.15l-3.29.37v3.31c0,1.52,0,3.03,0,4.54-.95-1.35-2.03-2.62-3.21-3.78C81.44.95,68.42-2.14,58.81,1.75c-5.65,2.29-9.57,6.65-11.49,12.59-2.1-4.4-5.77-7.76-10.73-9.75-8.98-3.6-19.83-1.95-26.6,1.27l-.38.21C1.96,10.88.62,20.27.3,27.9v.15s0,.15,0,.15c.15,3.81.03,7.98-.11,12.39-.44,14.46-.89,29.42,8.27,36.81,3.4,2.74,7.72,4.11,13.06,4.11,3.59-.06,7.16-.54,10.64-1.45,7.14-1.14,12.31-5.77,15.07-13.14,1.59,5.5,4.47,9.83,9.52,11.78,3.93,1.76,8.18,2.66,12.49,2.65,5.25.02,10.41-1.32,14.99-3.88,3.42-1.9,6.36-4.58,8.56-7.81,0,2.09,0,4.18,0,6.29v3s2.94.62,2.94.62c2.55.47,5.14.68,7.73.64,2.98,0,6.03-.19,8.74-.35.68-.04,1.33-.08,1.95-.12l3.41-.19.07-3.42c.04-1.88.07-3.85.09-5.87.07-5.47.15-11.08.47-16.28,1.3-.13,2.71-.24,4.1-.34,2.73-.21,5.56-.42,7.77-.8l2.91-.5.16-2.94c.06-1.13.16-1.95.25-2.73.3-2.53.45-4.37-.28-9.89l-.44-3.38-3.4.17c-.87.04-1.7.09-2.47.13-3.34.18-6.8.36-7.7-.03-.44-.77-.61-3.6-.7-6.78,2.71-.25,7.67-.19,11.21-.15,4.29.05,8.74.1,11.96-.16l3.21-.26.17-3.22c.19-3.43.12-7.56.06-11.21M81.47,43.86c-.9.02-1.83.05-2.79.06l-2.84.03-.7,2.75c-.37,1.67-.52,3.37-.46,5.07,0,1.61,0,2.99-.52,3.98l-.08.16c-.52.92-1.53,1.45-2.58,1.37-.8.04-1.53-.42-1.84-1.16l-.05-.13c-1.84-4.34-1.68-9.92-1.52-15.31.06-2.02.12-4.11.07-6.13.12-1.52.12-3.02.12-4.48-.07-1.8.04-3.6.33-5.37,1.65-.77,2.69-.81,3.13-.55.84.49,2.25,3.06,2.19,9.56l-.03,3.14,3.09.53c5.43.94,10.37,1.61,15.92.38-.01,1.93-.02,3.87-.03,5.78,0,.63,0,1.27,0,1.9-3.04-1.8-7.12-1.69-11.4-1.58M28.28,41.48c.09,8.66-2.48,16.93-4.28,18.03-.69-.37-1.29-.88-1.76-1.5-1.25-1.43-2.89-8.69-1.17-26.79.93-3.7,3.13-5.49,4.39-5.4.97.09,2.05,1.9,2.22,5.19v.11c.35,4.06.54,7.35.59,10.36"/>
        </g>
      </g>
    </g>
  </g>
</svg>